<?xml version="1.0" encoding="UTF-8" standalone="no"?>
<!-- Created with Inkscape (http://www.inkscape.org/) -->

<svg
   xmlns:dc="http://purl.org/dc/elements/1.1/"
   xmlns:cc="http://creativecommons.org/ns#"
   xmlns:rdf="http://www.w3.org/1999/02/22-rdf-syntax-ns#"
   xmlns:svg="http://www.w3.org/2000/svg"
   xmlns="http://www.w3.org/2000/svg"
   xmlns:sodipodi="http://sodipodi.sourceforge.net/DTD/sodipodi-0.dtd"
   xmlns:inkscape="http://www.inkscape.org/namespaces/inkscape"
   version="1.0"
   width="70"
   height="70"
   id="svg16997"
   inkscape:version="0.48.4 r9939"
   sodipodi:docname="fly_wv.svg">
  <metadata
     id="metadata12">
    <rdf:RDF>
      <cc:Work
         rdf:about="">
        <dc:format>image/svg+xml</dc:format>
        <dc:type
           rdf:resource="http://purl.org/dc/dcmitype/StillImage" />
      </cc:Work>
    </rdf:RDF>
  </metadata>
  <sodipodi:namedview
     pagecolor="#ffffff"
     bordercolor="#666666"
     borderopacity="1"
     objecttolerance="10"
     gridtolerance="10"
     guidetolerance="10"
     inkscape:pageopacity="0"
     inkscape:pageshadow="2"
     inkscape:window-width="1865"
     inkscape:window-height="1051"
     id="namedview10"
     showgrid="false"
     fit-margin-top="0"
     fit-margin-left="0"
     fit-margin-right="0"
     fit-margin-bottom="0"
     inkscape:zoom="1.4611421"
     inkscape:cx="-77.240968"
     inkscape:cy="35.000001"
     inkscape:window-x="55"
     inkscape:window-y="0"
     inkscape:window-maximized="1"
     inkscape:current-layer="svg16997" />
  <defs
     id="defs16999" />
  <g
     transform="matrix(0.41861647,0,0,0.4333896,109.15492,14.783287)"
     id="layer1">
    <path
       d="m -100.95286,62.31568 -14.36375,0 c 0,0 -3.94625,-0.6175 -6.98875,4.27125 l -32.0575,50.19125 c 0,0 -2.65625,5.39875 -5.82125,0 l -33.195,-55.475 16.7625,-23.53375 20.25875,32.3675 19.02125,-27.565 c 0,0 2.955,-4.93625 8.985,-4.93625 l 27.39875,0 0,24.68 z m -100.2725,-11.425 -30.72625,-50.24624966 c -2.135,-3.53125004 -6.93125,-3.16125004 -6.93125,-3.16125004 l -14.80875,0 0.055,-24.0262503 31.11375,0.0675 c 4.67125,0 7.59875,6.48875 7.59875,6.48875 l 16.6375,27.7862503 19.46625,-29.1175003 c 2.7175,-5.96375 5.1575,0 5.1575,0 l 17.97,29.1175003 18.635,-27.7862503 c 4.2075,-7.5775 7.375,-6.48875 7.375,-6.48875 l 28.73,0 0,23.9587503 -14.80875,0 c -5.3525,-0.37 -6.54375,3.16125004 -6.54375,3.16125004 L -153.47411,50.89068 c -3.0725,4.705 -5.60125,0 -5.60125,0 l -17.0275,-27.175 -19.74375,27.175 c -3.46375,4.46875 -5.37875,0 -5.37875,0 m 70.3925,-20.55625 12.99375,-22.4462497 c 0,0 1.37375,-3.0475 5.125,-2.68 l 19.107503,-0.05375 0,-38.9300003 -36.446253,0 c -2.20125,0.35875 -6.48375,-0.55 -11.21,5.72625 l -13.83875,23.3012503 -14.99375,-26.5300003 c 0,0 -5.46125,-6.37375 -11.825,0 l -16.48375,25.2212503 -12.24375,-22.3325003 c 0,0 -2.99,-5.49875 -10.08875,-5.49875 l -39.985,0 -0.03,38.9412503 18.26625,0.02 c 0,0 4.19125,-0.96625 6.20625,3.7075 0,0 72.47875,115.5587497 72.4025,115.5587497 3.97375,4.1925 9.61875,4.02625 12.74125,-0.12625 l 31.79375,-48.785 c 0,0 2.45,-5.81 6.52125,-5.80125 l 19.267503,0 0.01875,-39.33 -37.298753,0.0375 z"
       id="path3647"
       style="fill:#003366;fill-opacity:1;fill-rule:nonzero;stroke:none"
       inkscape:connector-curvature="0" />
    <path
       d="m -137.33661,42.57193 -19.02125,27.565 -20.25875,-32.3675 -16.7625,23.53375 33.195,55.475 c 3.165,5.39875 5.82125,0 5.82125,0 l 32.0575,-50.19125 c 3.0425,-4.88875 6.98875,-4.27125 6.98875,-4.27125 l 14.36375,0 0,-24.68 -27.39875,0 c -6.03,0 -8.985,4.93625 -8.985,4.93625"
       id="path3649"
       style="fill:#ffcc00;fill-opacity:1;fill-rule:nonzero;stroke:none"
       inkscape:connector-curvature="0" />
    <path
       d="m -129.68286,-26.47557 c 0,0 -3.1675,-1.08875 -7.375,6.48875 l -18.635,27.7862503 -17.97,-29.1175003 c 0,0 -2.44,-5.96375 -5.1575,0 l -19.46625,29.1175003 -16.6375,-27.7862503 c 0,0 -2.9275,-6.48875 -7.59875,-6.48875 l -31.11375,-0.0675 -0.055,24.0262503 14.80875,0 c 0,0 4.79625,-0.37 6.93125,3.16125004 L -201.22536,50.89068 c 0,0 1.915,4.46875 5.37875,0 l 19.74375,-27.175 17.0275,27.175 c 0,0 2.52875,4.705 5.60125,0 l 31.16875,-50.24624966 c 0,0 1.19125,-3.53125004 6.54375,-3.16125004 l 14.80875,0 0,-23.9587503 -28.73,0 z"
       id="path3651"
       style="fill:#ffcc00;fill-opacity:1;fill-rule:nonzero;stroke:none"
       inkscape:connector-curvature="0" />
    <path
       d="m -138.02536,122.59193 -0.92875,0 0,-1.7525 1.41625,0 c 0.615,0 1.28875,0.0937 1.28875,0.8575 0,1.01125 -1.07875,0.895 -1.77625,0.895 m 2.39125,-0.8825 c 0,-0.41625 -0.18625,-0.85875 -0.5575,-1.0675 -0.37125,-0.22 -0.78875,-0.24375 -1.2075,-0.24375 l -2.1575,0 0,4.95625 0.6025,0 0,-2.28625 1.115,0 1.41625,2.28625 0.71875,0 -1.4975,-2.28625 c 0.88125,-0.0237 1.5675,-0.38375 1.5675,-1.35875"
       id="path3653"
       style="fill:#003366;fill-opacity:1;fill-rule:nonzero;stroke:none"
       inkscape:connector-curvature="0" />
    <path
       d="m -137.90911,126.78068 c -2.15875,0 -3.9,-1.74 -3.9,-3.91125 0,-2.145 1.74125,-3.88625 3.9,-3.88625 2.1475,0 3.8875,1.74125 3.8875,3.88625 0,2.17125 -1.74,3.91125 -3.8875,3.91125 m 0,-8.33125 c -2.46,0 -4.445,1.985 -4.445,4.42 0,2.4625 1.985,4.44625 4.445,4.44625 2.4475,0 4.42125,-1.98375 4.42125,-4.44625 0,-2.435 -1.97375,-4.42 -4.42125,-4.42"
       id="path3655"
       style="fill:#003366;fill-opacity:1;fill-rule:nonzero;stroke:none"
       inkscape:connector-curvature="0" />
  </g>
</svg>
